<?xml version="1.0" standalone="no"?>
<!DOCTYPE svg PUBLIC "-//W3C//DTD SVG 20010904//EN"
 "http://www.w3.org/TR/2001/REC-SVG-20010904/DTD/svg10.dtd">
<svg version="1.0" xmlns="http://www.w3.org/2000/svg"
 width="225.000000pt" height="225.000000pt" viewBox="0 0 225.000000 225.000000"
 preserveAspectRatio="xMidYMid meet">

<g transform="translate(0.000000,225.000000) scale(0.100000,-0.100000)"
fill="#000000" stroke="none">
<path d="M955 2234 c-159 -25 -328 -91 -466 -184 -82 -56 -233 -207 -289 -289
-86 -128 -151 -286 -181 -441 -18 -95 -16 -319 5 -411 51 -237 155 -427 318
-585 456 -442 1161 -428 1598 32 270 284 370 678 270 1059 -53 201 -157 373
-316 525 -252 240 -595 348 -939 294z m514 -571 c42 -39 331 -412 331 -427 0
-7 -18 -22 -39 -34 l-40 -23 -152 156 c-84 85 -154 153 -156 151 -2 -2 23 -98
57 -214 75 -258 79 -292 48 -351 -21 -40 -39 -54 -185 -139 -185 -107 -218
-115 -296 -69 -23 14 -125 112 -226 217 -142 148 -197 198 -238 218 -29 14
-53 31 -53 37 0 6 26 26 58 44 31 18 134 78 227 131 94 54 260 150 370 214
222 128 244 135 294 89z m-876 -667 c45 -101 46 -128 8 -167 -65 -64 -161 -16
-151 76 4 41 73 175 89 175 10 0 29 -30 54 -84z m128 -208 c53 -106 61 -134
45 -173 -17 -39 -42 -55 -86 -55 -41 0 -90 47 -90 87 0 37 78 203 96 203 2 0
18 -28 35 -62z"/>
<path d="M1030 1449 c-201 -116 -385 -222 -409 -236 l-44 -26 35 -18 c19 -10
120 -106 224 -214 187 -195 237 -235 291 -235 40 0 333 171 355 207 10 15 18
47 18 70 0 23 -34 160 -75 304 -55 190 -73 265 -65 273 8 8 61 -39 187 -167
106 -108 181 -177 191 -175 8 2 15 8 14 13 -1 6 -70 97 -153 203 -126 161
-175 212 -203 212 -1 0 -166 -95 -366 -211z m37 -86 c4 -12 -109 -83 -133 -83
-32 0 -10 28 49 62 63 37 78 41 84 21z m70 -120 c4 -11 -110 -83 -133 -83 -32
0 -10 28 49 62 62 37 78 41 84 21z m70 -120 c4 -11 -114 -83 -135 -83 -31 0
-6 32 51 64 63 36 78 39 84 19z m70 -120 c4 -11 -115 -83 -136 -83 -30 0 -4
32 52 64 62 35 78 39 84 19z m67 -112 c7 -11 -16 -30 -76 -64 -53 -31 -68 -33
-68 -12 0 8 26 30 58 49 60 36 77 42 86 27z"/>
<path d="M505 956 c-30 -71 -29 -87 9 -111 19 -13 29 -14 45 -5 40 21 43 44
14 115 -14 36 -30 65 -34 65 -4 0 -19 -29 -34 -64z"/>
<path d="M656 728 c-32 -68 -31 -108 3 -124 31 -16 64 -4 75 28 7 20 2 39 -21
89 l-31 64 -26 -57z"/>
</g>
</svg>
